<svg width="64" height="64" viewBox="0 0 64 64" fill="none" xmlns="http://www.w3.org/2000/svg">
<path d="M59.616 0L47.6923 3.0844L53.6935 6.63022L44.2314 9.09774L38.1538 5.62841L26.3065 8.7128L32.3077 12.2586L22.7692 14.7261L16.768 11.2568L4.84677 14.3412L13.8462 19.6612L61.4622 7.17307L59.616 0.00246752V0ZM4.92308 19.5847C3.6174 19.5847 2.36519 20.1046 1.44194 21.0301C0.51868 21.9556 0 23.2109 0 24.5197C0 25.8286 0.51868 27.0838 1.44194 28.0093C2.36519 28.9348 3.6174 29.4548 4.92308 29.4548C6.22876 29.4548 7.48096 28.9348 8.40422 28.0093C9.32747 27.0838 9.84615 25.8286 9.84615 24.5197C9.84615 23.2109 9.32747 21.9556 8.40422 21.0301C7.48096 20.1046 6.22876 19.5847 4.92308 19.5847ZM14.7692 26.9872L7.38462 34.3898H19.6923L27.0769 26.9872H14.7692ZM36.9231 26.9872L29.5385 34.3898H41.8462L49.2308 26.9872H36.9231ZM59.0769 26.9872L51.6923 34.3898H64V26.9872H59.0769ZM0 36.8573V56.5974C0 58.5607 0.77802 60.4436 2.1629 61.8318C3.54779 63.2201 5.42609 64 7.38462 64H56.6154C58.5739 64 60.4522 63.2201 61.8371 61.8318C63.222 60.4436 64 58.5607 64 56.5974V36.8573H0Z" fill="#80C7DC"/>
<path d="M0 56.5974V36.8573H64V56.5974C64 58.5607 63.222 60.4436 61.8371 61.8318C60.4522 63.2201 58.5739 64 56.6154 64H7.38462C5.42609 64 3.54779 63.2201 2.1629 61.8318C0.77802 60.4436 0 58.5607 0 56.5974Z" fill="#D51F4B"/>
<path d="M8.21532 56.1331C6.37129 56.1331 5.00759 55.6507 4.12422 54.6861C3.24086 53.7214 2.79917 52.219 2.79917 50.1788C2.79917 46.2315 4.62664 44.2578 8.28157 44.2578C8.63492 44.2578 8.99931 44.2855 9.37474 44.341C9.75017 44.3853 10.098 44.4574 10.4182 44.5572C10.7384 44.6459 11.0035 44.7512 11.2133 44.8732C11.4893 45.0395 11.6273 45.2058 11.6273 45.3721C11.6273 45.5052 11.5776 45.6826 11.4783 45.9044C11.3789 46.115 11.2574 46.3035 11.1139 46.4699C10.9814 46.6362 10.8544 46.7193 10.7329 46.7193C10.6777 46.7193 10.5507 46.6694 10.352 46.5696C10.1643 46.4699 9.89924 46.3701 9.55694 46.2703C9.21463 46.1705 8.77847 46.1206 8.24845 46.1206C7.15528 46.1206 6.34369 46.4532 5.81366 47.1185C5.29469 47.7838 5.0352 48.8094 5.0352 50.1954C5.0352 51.5593 5.29469 52.5793 5.81366 53.2557C6.34369 53.9321 7.14424 54.2703 8.21532 54.2703C8.75638 54.2703 9.21463 54.2148 9.59006 54.104C9.96549 53.982 10.2692 53.86 10.501 53.738C10.744 53.6161 10.8986 53.5551 10.9648 53.5551C11.1084 53.5551 11.2464 53.6438 11.3789 53.8212C11.5114 53.9875 11.6163 54.1705 11.6936 54.3701C11.7709 54.5696 11.8095 54.7138 11.8095 54.8025C11.8095 54.9356 11.7598 55.0631 11.6605 55.185C11.5611 55.2959 11.4231 55.4012 11.2464 55.501C11.0035 55.6341 10.7108 55.7505 10.3685 55.8503C10.0262 55.939 9.66736 56.0055 9.29193 56.0499C8.91649 56.1053 8.55763 56.1331 8.21532 56.1331Z" fill="white"/>
<path d="M14.3626 56.0665C13.7773 56.0665 13.4847 55.9002 13.4847 55.5676V44.8233C13.4847 44.4906 13.7773 44.3243 14.3626 44.3243H14.7932C15.3785 44.3243 15.6711 44.4906 15.6711 44.8233V55.5676C15.6711 55.9002 15.3785 56.0665 14.7932 56.0665H14.3626Z" fill="white"/>
<path d="M19.0699 56.0499C18.4846 56.0499 18.192 55.8891 18.192 55.5676V44.8233C18.192 44.5017 18.4846 44.341 19.0699 44.341H19.6661C19.887 44.341 20.0747 44.3687 20.2293 44.4241C20.3839 44.4685 20.5109 44.5738 20.6102 44.7401L24.8504 51.2432C24.9719 51.4096 25.0768 51.5759 25.1651 51.7422C25.2645 51.8974 25.3528 52.0638 25.4301 52.2412L25.4964 52.2245C25.4853 52.036 25.4743 51.8642 25.4633 51.7089C25.4633 51.5426 25.4633 51.3375 25.4633 51.0936V44.8233C25.4633 44.5017 25.7559 44.341 26.3411 44.341H26.7055C27.2907 44.341 27.5833 44.5017 27.5833 44.8233V55.5676C27.5833 55.8891 27.2907 56.0499 26.7055 56.0499H26.1755C25.9657 56.0499 25.7835 56.0277 25.6289 55.9834C25.4853 55.9279 25.3639 55.8226 25.2645 55.6674L20.9249 49.0478C20.8145 48.8815 20.7096 48.7207 20.6102 48.5655C20.5219 48.4103 20.4336 48.2439 20.3452 48.0665L20.279 48.0832C20.3011 48.2717 20.3121 48.4491 20.3121 48.6154C20.3121 48.7706 20.3121 48.9702 20.3121 49.2141V55.5676C20.3121 55.8891 20.0195 56.0499 19.4343 56.0499H19.0699Z" fill="white"/>
<path d="M30.8421 56.0166C30.4336 56.0166 30.2293 55.8115 30.2293 55.4012V44.9896C30.2293 44.5793 30.4336 44.3742 30.8421 44.3742H36.6392C36.9374 44.3742 37.0864 44.6126 37.0864 45.0894V45.5218C37.0864 45.9986 36.9374 46.237 36.6392 46.237H32.3991V49.131H36.1755C36.4736 49.131 36.6227 49.3694 36.6227 49.8462V50.2786C36.6227 50.7554 36.4736 50.9938 36.1755 50.9938H32.3991V54.1538H36.6558C36.9539 54.1538 37.103 54.3922 37.103 54.869V55.3015C37.103 55.7782 36.9539 56.0166 36.6558 56.0166H30.8421ZM32.7138 43.5426C32.3383 43.5426 32.1506 43.4705 32.1506 43.3264C32.1506 43.2821 32.1672 43.2322 32.2003 43.1767C32.2334 43.1213 32.2831 43.0492 32.3494 42.9605L33.2438 41.9792C33.4094 41.8018 33.5861 41.6854 33.7738 41.6299C33.9726 41.5634 34.2541 41.5301 34.6185 41.5301C34.9608 41.5301 35.2258 41.5523 35.4136 41.5967C35.6013 41.6299 35.6951 41.7076 35.6951 41.8295C35.6951 41.896 35.6565 41.9737 35.5792 42.0624C35.5019 42.1511 35.3528 42.2675 35.132 42.4116L33.8898 43.21C33.691 43.343 33.5143 43.4317 33.3597 43.4761C33.2051 43.5204 32.9898 43.5426 32.7138 43.5426Z" fill="white"/>
<path d="M44.6044 53.0728C44.3505 53.0728 44.1627 52.9785 44.0413 52.79L41.6893 48.6154C41.612 48.5045 41.5402 48.3936 41.474 48.2827C41.4188 48.1719 41.3636 48.0554 41.3084 47.9335L41.2421 47.9501C41.2531 48.0942 41.2587 48.2384 41.2587 48.3825C41.2587 48.5156 41.2587 48.6542 41.2587 48.7983V55.5676C41.2587 55.8891 40.9661 56.0499 40.3808 56.0499H40.0164C39.4312 56.0499 39.1386 55.8891 39.1386 55.5676V44.8233C39.1386 44.5017 39.4312 44.341 40.0164 44.341H40.7949C41.0268 44.341 41.22 44.3742 41.3746 44.4407C41.5402 44.4962 41.6562 44.596 41.7224 44.7401L44.6044 49.8462C44.6486 49.9238 44.6928 50.0125 44.7369 50.1123C44.7921 50.201 44.8363 50.2952 44.8694 50.395C44.9026 50.2952 44.9467 50.1954 45.0019 50.0956C45.0572 49.9958 45.1013 49.9071 45.1344 49.8295L48.0164 44.7401C48.0937 44.596 48.2097 44.4962 48.3643 44.4407C48.5299 44.3742 48.7231 44.341 48.944 44.341H49.7059C50.2911 44.341 50.5837 44.5017 50.5837 44.8233V55.5676C50.5837 55.8891 50.2911 56.0499 49.7059 56.0499H49.3415C48.7563 56.0499 48.4636 55.8891 48.4636 55.5676V48.8316C48.4636 48.6875 48.4636 48.5489 48.4636 48.4158C48.4747 48.2717 48.4802 48.1275 48.4802 47.9834L48.414 47.9667C48.3587 48.0887 48.298 48.2051 48.2318 48.316C48.1765 48.4269 48.1103 48.5378 48.033 48.6486L45.6976 52.79C45.5761 52.9785 45.3884 53.0728 45.1344 53.0728H44.6044Z" fill="white"/>
<path d="M52.816 56.0499C52.2087 56.0499 51.905 55.939 51.905 55.7173C51.905 55.6729 51.9105 55.6286 51.9216 55.5842C51.9437 55.5398 51.9602 55.49 51.9713 55.4345L55.7145 44.657C55.7918 44.4463 56.0734 44.341 56.5593 44.341H57.288C57.7849 44.341 58.0665 44.4463 58.1328 44.657L61.876 55.4345C61.9092 55.5343 61.9257 55.6286 61.9257 55.7173C61.9257 55.939 61.6607 56.0499 61.1307 56.0499H60.6172C60.3964 56.0499 60.2087 56.0277 60.0541 55.9834C59.9105 55.939 59.8167 55.8559 59.7725 55.7339L59.0106 53.4553H54.7704L54.0085 55.7339C53.9644 55.8448 53.876 55.9279 53.7435 55.9834C53.6221 56.0277 53.4675 56.0499 53.2798 56.0499H52.816ZM55.3833 51.5925H58.3812L57.1721 47.9335C57.1169 47.7672 57.0672 47.5953 57.023 47.4179C56.9899 47.2405 56.9623 47.0686 56.9402 46.9023H56.874C56.8408 47.0686 56.8077 47.2405 56.7746 47.4179C56.7415 47.5953 56.6918 47.7672 56.6255 47.9335L55.3833 51.5925Z" fill="white"/>
</svg>
