<svg width="16" height="16" viewBox="0 0 16 16" fill="none" xmlns="http://www.w3.org/2000/svg">
<path d="M15 8C15 9.85652 14.2625 11.637 12.9497 12.9497C11.637 14.2625 9.85652 15 8 15C6.14348 15 4.36301 14.2625 3.05025 12.9497C1.7375 11.637 1 9.85652 1 8C1 6.14348 1.7375 4.36301 3.05025 3.05025C4.36301 1.7375 6.14348 1 8 1C9.85652 1 11.637 1.7375 12.9497 3.05025C14.2625 4.36301 15 6.14348 15 8ZM11.5262 5.34875C11.4637 5.28647 11.3893 5.23743 11.3074 5.20456C11.2256 5.1717 11.1379 5.15569 11.0497 5.15749C10.9614 5.15928 10.8745 5.17885 10.794 5.21502C10.7135 5.25119 10.6412 5.30322 10.5813 5.368L7.54238 9.23987L5.711 7.40763C5.5866 7.29171 5.42206 7.2286 5.25204 7.2316C5.08203 7.2346 4.91982 7.30347 4.79958 7.42371C4.67934 7.54394 4.61047 7.70615 4.60747 7.87617C4.60447 8.04618 4.66758 8.21072 4.7835 8.33513L7.09875 10.6512C7.16112 10.7135 7.23539 10.7626 7.31714 10.7955C7.39888 10.8284 7.48642 10.8446 7.57453 10.8429C7.66264 10.8413 7.74952 10.8219 7.82998 10.786C7.91045 10.7501 7.98285 10.6983 8.04287 10.6337L11.5359 6.2675C11.655 6.14369 11.7207 5.97812 11.7191 5.80634C11.7175 5.63456 11.6485 5.47027 11.5271 5.34875H11.5262Z" fill="white"/>
</svg>
