<svg width="64" height="64" viewBox="0 0 64 64" fill="none" xmlns="http://www.w3.org/2000/svg">
<path fill-rule="evenodd" clip-rule="evenodd" d="M32 3.74185C26.5924 3.74162 21.2982 5.29302 16.7459 8.2119C12.1937 11.1308 8.57457 15.2946 6.31817 20.209C4.06176 25.1234 3.26284 30.582 4.01624 35.9369C4.76964 41.2919 7.04373 46.3182 10.5685 50.4192L7.02721 53.9605C6.82345 54.1573 6.66093 54.3927 6.54913 54.653C6.43732 54.9133 6.37847 55.1932 6.37601 55.4765C6.37355 55.7597 6.42752 56.0406 6.53479 56.3028C6.64205 56.565 6.80046 56.8032 7.00077 57.0035C7.20107 57.2038 7.43926 57.3622 7.70144 57.4695C7.96362 57.5767 8.24454 57.6307 8.5278 57.6283C8.81106 57.6258 9.091 57.5669 9.35127 57.4551C9.61155 57.3433 9.84695 57.1808 10.0437 56.9771L13.5851 53.4357C18.9888 58.0841 25.9496 60.5185 33.0726 60.2513C40.1955 59.984 46.9543 57.0348 51.9946 51.9945C57.0348 46.9543 59.984 40.1955 60.2513 33.0726C60.5186 25.9496 58.0841 18.9888 53.4357 13.5851L56.9771 10.0437C57.1754 9.84537 57.3328 9.6099 57.4401 9.35074C57.5475 9.09159 57.6027 8.81383 57.6027 8.53332C57.6027 8.25281 57.5475 7.97505 57.4401 7.7159C57.3328 7.45674 57.1754 7.22127 56.9771 7.02292C56.7787 6.82457 56.5433 6.66723 56.2841 6.55989C56.0249 6.45254 55.7472 6.39729 55.4667 6.39729C55.1862 6.39729 54.9084 6.45254 54.6493 6.55989C54.3901 6.66723 54.1546 6.82457 53.9563 7.02292L50.4149 10.5643C45.2941 6.15464 38.7578 3.73455 32 3.74612V3.74185ZM47.5392 13.4443C42.901 9.55579 36.9744 7.5461 30.9277 7.81142C24.881 8.07674 19.1531 10.5978 14.8733 14.8776C10.5936 19.1573 8.0725 24.8852 7.80718 30.9319C7.54186 36.9786 9.55155 42.9053 13.44 47.5435L47.5392 13.4443V13.4443ZM16.4608 50.5557C21.099 54.4442 27.0257 56.4539 33.0724 56.1886C39.119 55.9232 44.8469 53.4022 49.1267 49.1224C53.4065 44.8426 55.9275 39.1147 56.1928 33.0681C56.4582 27.0214 54.4485 21.0947 50.56 16.4565L16.4565 50.56L16.4608 50.5557Z" fill="white"/>
</svg>
