<svg width="16" height="16" viewBox="0 0 16 16" fill="none" xmlns="http://www.w3.org/2000/svg">
<path d="M14.904 0L11.9231 0.771099L13.4234 1.65755L11.0578 2.27443L9.53846 1.4071L6.57662 2.1782L8.07692 3.06466L5.69231 3.68154L4.192 2.8142L1.21169 3.5853L3.46154 4.91529L15.3655 1.79327L14.904 0.000616881V0ZM1.23077 4.89617C0.904349 4.89617 0.591298 5.02616 0.360484 5.25753C0.12967 5.48891 0 5.80272 0 6.12993C0 6.45714 0.12967 6.77095 0.360484 7.00233C0.591298 7.2337 0.904349 7.36369 1.23077 7.36369C1.55719 7.36369 1.87024 7.2337 2.10105 7.00233C2.33187 6.77095 2.46154 6.45714 2.46154 6.12993C2.46154 5.80272 2.33187 5.48891 2.10105 5.25753C1.87024 5.02616 1.55719 4.89617 1.23077 4.89617ZM3.69231 6.74681L1.84615 8.59745H4.92308L6.76923 6.74681H3.69231ZM9.23077 6.74681L7.38462 8.59745H10.4615L12.3077 6.74681H9.23077ZM14.7692 6.74681L12.9231 8.59745H16V6.74681H14.7692ZM0 9.21433V14.1494C0 14.6402 0.194505 15.1109 0.540726 15.458C0.886947 15.805 1.35652 16 1.84615 16H14.1538C14.6435 16 15.1131 15.805 15.4593 15.458C15.8055 15.1109 16 14.6402 16 14.1494V9.21433H0Z" fill="#80C7DC"/>
<path d="M0 14.1494V9.21433H16V14.1494C16 14.6402 15.8055 15.1109 15.4593 15.458C15.1131 15.805 14.6435 16 14.1538 16H1.84615C1.35652 16 0.886947 15.805 0.540726 15.458C0.194505 15.1109 0 14.6402 0 14.1494Z" fill="#D51F4B"/>
<path d="M2.05383 14.0333C1.59282 14.0333 1.2519 13.9127 1.03106 13.6715C0.810214 13.4304 0.699793 13.0547 0.699793 12.5447C0.699793 11.5579 1.15666 11.0644 2.07039 11.0644C2.15873 11.0644 2.24983 11.0714 2.34369 11.0852C2.43754 11.0963 2.5245 11.1143 2.60455 11.1393C2.68461 11.1615 2.75086 11.1878 2.80331 11.2183C2.87233 11.2599 2.90683 11.3015 2.90683 11.343C2.90683 11.3763 2.89441 11.4207 2.86957 11.4761C2.84472 11.5288 2.81435 11.5759 2.77847 11.6175C2.74534 11.659 2.7136 11.6798 2.68323 11.6798C2.66943 11.6798 2.63768 11.6674 2.58799 11.6424C2.54106 11.6175 2.47481 11.5925 2.38923 11.5676C2.30366 11.5426 2.19462 11.5301 2.06211 11.5301C1.78882 11.5301 1.58592 11.6133 1.45342 11.7796C1.32367 11.9459 1.2588 12.2024 1.2588 12.5489C1.2588 12.8898 1.32367 13.1448 1.45342 13.3139C1.58592 13.483 1.78606 13.5676 2.05383 13.5676C2.1891 13.5676 2.30366 13.5537 2.39752 13.526C2.49137 13.4955 2.56729 13.465 2.62526 13.4345C2.68599 13.404 2.72464 13.3888 2.7412 13.3888C2.77709 13.3888 2.81159 13.4109 2.84472 13.4553C2.87785 13.4969 2.90407 13.5426 2.9234 13.5925C2.94272 13.6424 2.95238 13.6784 2.95238 13.7006C2.95238 13.7339 2.93996 13.7658 2.91511 13.7963C2.89027 13.824 2.85576 13.8503 2.81159 13.8753C2.75086 13.9085 2.67771 13.9376 2.59213 13.9626C2.50656 13.9848 2.41684 14.0014 2.32298 14.0125C2.22912 14.0263 2.13941 14.0333 2.05383 14.0333Z" fill="white"/>
<path d="M3.59064 14.0166C3.44434 14.0166 3.37118 13.9751 3.37118 13.8919V11.2058C3.37118 11.1227 3.44434 11.0811 3.59064 11.0811H3.6983C3.84461 11.0811 3.91777 11.1227 3.91777 11.2058V13.8919C3.91777 13.9751 3.84461 14.0166 3.6983 14.0166H3.59064Z" fill="white"/>
<path d="M4.76747 14.0125C4.62116 14.0125 4.54801 13.9723 4.54801 13.8919V11.2058C4.54801 11.1254 4.62116 11.0852 4.76747 11.0852H4.91654C4.97175 11.0852 5.01868 11.0922 5.05732 11.106C5.09597 11.1171 5.12772 11.1435 5.15256 11.185L6.2126 12.8108C6.24297 12.8524 6.26919 12.894 6.29128 12.9356C6.31612 12.9744 6.33821 13.0159 6.35753 13.0603L6.37409 13.0561C6.37133 13.009 6.36857 12.966 6.36581 12.9272C6.36581 12.8857 6.36581 12.8344 6.36581 12.7734V11.2058C6.36581 11.1254 6.43897 11.0852 6.58527 11.0852H6.67637C6.82268 11.0852 6.89583 11.1254 6.89583 11.2058V13.8919C6.89583 13.9723 6.82268 14.0125 6.67637 14.0125H6.54387C6.49142 14.0125 6.44587 14.0069 6.40722 13.9958C6.37133 13.982 6.34097 13.9556 6.31612 13.9168L5.23124 12.262C5.20363 12.2204 5.17741 12.1802 5.15256 12.1414C5.13048 12.1026 5.10839 12.061 5.08631 12.0166L5.06975 12.0208C5.07527 12.0679 5.07803 12.1123 5.07803 12.1538C5.07803 12.1927 5.07803 12.2426 5.07803 12.3035V13.8919C5.07803 13.9723 5.00487 14.0125 4.85857 14.0125H4.76747Z" fill="white"/>
<path d="M7.71053 14.0042C7.60839 14.0042 7.55732 13.9529 7.55732 13.8503V11.2474C7.55732 11.1448 7.60839 11.0936 7.71053 11.0936H9.15981C9.23434 11.0936 9.27161 11.1532 9.27161 11.2723V11.3805C9.27161 11.4997 9.23434 11.5593 9.15981 11.5593H8.09977V12.2827H9.04387C9.1184 12.2827 9.15567 12.3423 9.15567 12.4615V12.5696C9.15567 12.6888 9.1184 12.7484 9.04387 12.7484H8.09977V13.5385H9.16395C9.23848 13.5385 9.27575 13.5981 9.27575 13.7173V13.8254C9.27575 13.9446 9.23848 14.0042 9.16395 14.0042H7.71053ZM8.17844 10.8857C8.08458 10.8857 8.03766 10.8676 8.03766 10.8316C8.03766 10.8205 8.0418 10.808 8.05008 10.7942C8.05836 10.7803 8.07078 10.7623 8.08734 10.7401L8.31095 10.4948C8.35236 10.4505 8.39652 10.4213 8.44345 10.4075C8.49314 10.3909 8.56354 10.3825 8.65463 10.3825C8.74021 10.3825 8.80646 10.3881 8.85339 10.3992C8.90032 10.4075 8.92378 10.4269 8.92378 10.4574C8.92378 10.474 8.91412 10.4934 8.8948 10.5156C8.87547 10.5378 8.83821 10.5669 8.783 10.6029L8.47244 10.8025C8.42275 10.8358 8.37858 10.8579 8.33993 10.869C8.30129 10.8801 8.24746 10.8857 8.17844 10.8857Z" fill="white"/>
<path d="M11.1511 13.2682C11.0876 13.2682 11.0407 13.2446 11.0103 13.1975L10.4223 12.1538C10.403 12.1261 10.3851 12.0984 10.3685 12.0707C10.3547 12.043 10.3409 12.0139 10.3271 11.9834L10.3105 11.9875C10.3133 12.0236 10.3147 12.0596 10.3147 12.0956C10.3147 12.1289 10.3147 12.1635 10.3147 12.1996V13.8919C10.3147 13.9723 10.2415 14.0125 10.0952 14.0125H10.0041C9.8578 14.0125 9.78465 13.9723 9.78465 13.8919V11.2058C9.78465 11.1254 9.8578 11.0852 10.0041 11.0852H10.1987C10.2567 11.0852 10.305 11.0936 10.3437 11.1102C10.3851 11.124 10.414 11.149 10.4306 11.185L11.1511 12.4615C11.1621 12.4809 11.1732 12.5031 11.1842 12.5281C11.198 12.5502 11.2091 12.5738 11.2174 12.5988C11.2256 12.5738 11.2367 12.5489 11.2505 12.5239C11.2643 12.499 11.2753 12.4768 11.2836 12.4574L12.0041 11.185C12.0234 11.149 12.0524 11.124 12.0911 11.1102C12.1325 11.0936 12.1808 11.0852 12.236 11.0852H12.4265C12.5728 11.0852 12.6459 11.1254 12.6459 11.2058V13.8919C12.6459 13.9723 12.5728 14.0125 12.4265 14.0125H12.3354C12.1891 14.0125 12.1159 13.9723 12.1159 13.8919V12.2079C12.1159 12.1719 12.1159 12.1372 12.1159 12.104C12.1187 12.0679 12.1201 12.0319 12.1201 11.9958L12.1035 11.9917C12.0897 12.0222 12.0745 12.0513 12.0579 12.079C12.0441 12.1067 12.0276 12.1344 12.0082 12.1622L11.4244 13.1975C11.394 13.2446 11.3471 13.2682 11.2836 13.2682H11.1511Z" fill="white"/>
<path d="M13.204 14.0125C13.0522 14.0125 12.9763 13.9848 12.9763 13.9293C12.9763 13.9182 12.9776 13.9071 12.9804 13.896C12.9859 13.885 12.9901 13.8725 12.9928 13.8586L13.9286 11.1642C13.948 11.1116 14.0184 11.0852 14.1398 11.0852H14.322C14.4462 11.0852 14.5166 11.1116 14.5332 11.1642L15.469 13.8586C15.4773 13.8836 15.4814 13.9071 15.4814 13.9293C15.4814 13.9848 15.4152 14.0125 15.2827 14.0125H15.1543C15.0991 14.0125 15.0522 14.0069 15.0135 13.9958C14.9776 13.9848 14.9542 13.964 14.9431 13.9335L14.7527 13.3638H13.6926L13.5021 13.9335C13.4911 13.9612 13.469 13.982 13.4359 13.9958C13.4055 14.0069 13.3669 14.0125 13.3199 14.0125H13.204ZM13.8458 12.8981H14.5953L14.293 11.9834C14.2792 11.9418 14.2668 11.8988 14.2558 11.8545C14.2475 11.8101 14.2406 11.7672 14.2351 11.7256H14.2185C14.2102 11.7672 14.2019 11.8101 14.1936 11.8545C14.1854 11.8988 14.1729 11.9418 14.1564 11.9834L13.8458 12.8981Z" fill="white"/>
</svg>
