<svg width="64" height="64" viewBox="0 0 64 64" fill="none" xmlns="http://www.w3.org/2000/svg">
<path d="M35.76 32L47.2267 20.56C47.7288 20.0578 48.0109 19.3768 48.0109 18.6667C48.0109 17.9565 47.7288 17.2755 47.2267 16.7733C46.7245 16.2712 46.0435 15.9891 45.3334 15.9891C44.6232 15.9891 43.9422 16.2712 43.44 16.7733L32 28.24L20.56 16.7733C20.0579 16.2712 19.3768 15.9891 18.6667 15.9891C17.9565 15.9891 17.2755 16.2712 16.7734 16.7733C16.2712 17.2755 15.9891 17.9565 15.9891 18.6667C15.9891 19.3768 16.2712 20.0578 16.7734 20.56L28.24 32L16.7734 43.44C16.5234 43.6879 16.325 43.9828 16.1896 44.3078C16.0543 44.6327 15.9846 44.9813 15.9846 45.3333C15.9846 45.6854 16.0543 46.0339 16.1896 46.3589C16.325 46.6838 16.5234 46.9788 16.7734 47.2267C17.0213 47.4766 17.3162 47.675 17.6411 47.8104C17.9661 47.9458 18.3147 48.0155 18.6667 48.0155C19.0187 48.0155 19.3673 47.9458 19.6922 47.8104C20.0172 47.675 20.3121 47.4766 20.56 47.2267L32 35.76L43.44 47.2267C43.6879 47.4766 43.9829 47.675 44.3078 47.8104C44.6328 47.9458 44.9813 48.0155 45.3334 48.0155C45.6854 48.0155 46.0339 47.9458 46.3589 47.8104C46.6839 47.675 46.9788 47.4766 47.2267 47.2267C47.4766 46.9788 47.675 46.6838 47.8104 46.3589C47.9458 46.0339 48.0155 45.6854 48.0155 45.3333C48.0155 44.9813 47.9458 44.6327 47.8104 44.3078C47.675 43.9828 47.4766 43.6879 47.2267 43.44L35.76 32Z" fill="white"/>
</svg>
