<svg width="16" height="16" viewBox="0 0 16 16" fill="none" xmlns="http://www.w3.org/2000/svg">
<path d="M2.47332 14.56C2.32657 14.56 2.18582 14.5017 2.08205 14.398C1.97828 14.2942 1.91998 14.1534 1.91998 14.0067V1.83327C1.92 1.73712 1.94507 1.64263 1.99273 1.55912C2.04039 1.4756 2.10898 1.40595 2.19176 1.35702C2.27453 1.30809 2.36863 1.28158 2.46477 1.2801C2.56091 1.27861 2.65578 1.3022 2.74003 1.34855L13.8068 7.43526C13.8935 7.48303 13.9659 7.5532 14.0163 7.63846C14.0666 7.72372 14.0932 7.82095 14.0932 7.91998C14.0932 8.01902 14.0666 8.11624 14.0163 8.2015C13.9659 8.28676 13.8935 8.35694 13.8068 8.40471L2.74003 14.4914C2.65833 14.5364 2.56658 14.56 2.47332 14.56Z" fill="white"/>
</svg>
